<?xml version="1.0" standalone="no"?>
<!DOCTYPE svg PUBLIC "-//W3C//DTD SVG 20010904//EN"
 "http://www.w3.org/TR/2001/REC-SVG-20010904/DTD/svg10.dtd">
<svg version="1.0" xmlns="http://www.w3.org/2000/svg"
 width="260.000000pt" height="260.000000pt" viewBox="0 0 260.000000 260.000000"
 preserveAspectRatio="xMidYMid meet">
<metadata>
Created by potrace 1.14, written by Peter Selinger 2001-2017
</metadata>
<g transform="translate(0.000000,260.000000) scale(0.100000,-0.100000)"
fill="#000000" stroke="none">
<path d="M1150 1725 c-173 -47 -324 -171 -398 -326 -43 -89 -62 -162 -62 -234
l0 -45 615 0 615 0 0 38 c0 57 -34 181 -69 250 -68 135 -198 248 -344 300 -91
32 -270 41 -357 17z m140 -48 c0 -42 -24 -75 -67 -93 -18 -8 -31 -19 -28 -24
9 -14 59 -12 73 2 9 9 12 -1 14 -47 3 -118 -9 -145 -67 -145 -40 0 -63 17 -73
54 -9 33 -29 45 -38 23 -11 -30 22 -84 65 -103 49 -21 55 -52 16 -82 -40 -32
-28 -54 20 -36 20 8 45 56 45 87 0 14 7 27 15 31 13 4 15 -10 15 -94 l0 -100
-74 0 -73 0 -6 49 c-8 67 -41 141 -94 209 -49 63 -53 93 -18 127 28 29 54 31
95 10 38 -19 53 0 20 27 -56 46 -169 -1 -170 -70 l0 -23 -40 23 c-22 13 -40
26 -40 30 0 13 126 101 179 125 62 28 151 51 199 52 30 1 32 -1 32 -32z m134
18 c38 -8 97 -28 130 -43 62 -29 166 -105 166 -121 0 -5 -19 -20 -43 -34 -41
-24 -112 -94 -150 -147 -10 -14 -6 -1 9 28 28 55 82 117 123 143 l24 15 -58
39 c-72 47 -140 74 -230 89 -52 9 -71 17 -73 29 -4 21 11 21 102 2z m-467
-262 c54 -43 103 -114 103 -147 0 -16 -9 -32 -25 -42 -23 -15 -27 -15 -50 0
-13 9 -29 16 -35 16 -18 0 -11 -28 12 -44 29 -20 67 -20 96 0 28 19 28 19 35
-28 l6 -38 -108 0 c-94 0 -112 3 -135 21 -45 36 -30 100 30 125 52 22 45 39
-13 34 -18 -1 -23 4 -23 24 0 14 5 28 10 31 15 9 12 35 -5 35 -21 0 -35 -32
-35 -80 0 -22 -7 -52 -16 -65 -16 -25 -16 -70 1 -107 6 -16 1 -18 -40 -18
l-48 0 6 52 c9 77 43 169 88 238 l39 61 32 -17 c18 -9 52 -32 75 -51z m823 30
c31 -40 78 -143 85 -188 5 -35 3 -33 -19 22 -14 34 -43 89 -65 122 -23 33 -41
62 -41 65 0 15 21 4 40 -21z m97 -255 c-3 -8 -6 -5 -6 6 -1 11 2 17 5 13 3 -3
4 -12 1 -19z"/>
<path d="M365 1070 c-4 -7 310 -10 934 -10 621 0 941 3 941 10 0 14 -1866 14
-1875 0z"/>
<path d="M360 940 c0 -70 16 -98 22 -38 2 25 9 34 28 39 l25 7 -27 1 c-24 1
-28 5 -28 31 0 17 -4 30 -10 30 -6 0 -10 -30 -10 -70z"/>
<path d="M463 940 c0 -41 2 -58 4 -37 2 20 2 54 0 75 -2 20 -4 3 -4 -38z"/>
<path d="M530 990 c-43 -43 -11 -120 48 -120 36 0 72 37 72 73 0 36 -33 67
-70 67 -17 0 -39 -9 -50 -20z m84 -6 c41 -40 -4 -121 -53 -94 -30 16 -43 44
-32 73 15 38 58 49 85 21z"/>
<path d="M700 990 c-42 -42 -10 -120 50 -120 34 0 70 38 70 73 0 36 -33 67
-70 67 -17 0 -39 -9 -50 -20z m84 -6 c41 -40 -4 -121 -53 -94 -30 16 -43 44
-32 73 15 38 58 49 85 21z"/>
<path d="M875 1003 c11 -2 30 -6 43 -9 17 -3 22 -10 20 -27 -2 -17 -11 -23
-43 -27 -33 -4 -41 -9 -43 -29 -2 -13 1 -28 7 -34 8 -8 11 -3 11 16 0 23 4 27
29 27 49 0 79 48 49 78 -7 7 -30 11 -52 11 -23 -1 -32 -3 -21 -6z"/>
<path d="M1022 1001 c48 -10 68 -27 68 -60 0 -36 -17 -51 -56 -51 -30 0 -33 3
-37 38 -3 34 -4 33 -5 -10 l-2 -48 34 0 c46 0 86 33 86 71 0 43 -31 69 -82 68
l-43 -1 37 -7z"/>
<path d="M1156 945 c-16 -36 -26 -68 -23 -71 3 -3 18 23 33 57 l28 63 29 -63
c15 -35 31 -61 34 -57 8 8 -50 135 -62 135 -5 0 -23 -29 -39 -64z"/>
<path d="M1290 940 c0 -56 3 -70 15 -70 11 0 15 12 15 43 l1 42 20 -24 c11
-13 21 -22 23 -20 1 2 17 25 35 52 28 41 30 47 13 47 -10 0 -24 -11 -30 -25
-6 -14 -15 -25 -20 -25 -5 0 -15 11 -22 25 -7 14 -22 25 -32 25 -16 0 -18 -9
-18 -70z"/>
<path d="M1465 1000 c-3 -6 0 -13 8 -16 25 -9 90 0 95 14 5 15 -94 17 -103 2z"/>
<path d="M1600 940 c0 -56 3 -70 15 -70 11 0 15 11 15 43 l0 42 36 -42 c35
-42 54 -53 54 -32 0 18 -92 129 -106 129 -11 0 -14 -18 -14 -70z"/>
<path d="M1690 988 c0 -13 7 -32 15 -42 14 -18 15 -17 15 22 0 31 -4 42 -15
42 -9 0 -15 -9 -15 -22z"/>
<path d="M1750 995 c0 -10 10 -15 32 -15 25 0 29 -3 20 -12 -18 -18 -16 -98 3
-98 12 0 15 13 15 55 0 48 2 55 20 55 11 0 20 7 20 15 0 12 -13 15 -55 15 -42
0 -55 -3 -55 -15z"/>
<path d="M1891 952 c-13 -31 -25 -63 -28 -69 -3 -7 2 -13 10 -13 9 0 23 19 33
45 9 25 20 45 25 45 4 0 15 -20 25 -45 9 -25 23 -45 30 -45 19 0 18 6 -13 78
-17 37 -34 62 -43 62 -9 0 -24 -23 -39 -58z"/>
<path d="M2030 940 l0 -70 50 0 c38 0 50 4 50 15 0 10 -11 15 -35 15 l-35 0 0
55 c0 42 -3 55 -15 55 -12 0 -15 -14 -15 -70z"/>
<path d="M2149 994 c-17 -21 0 -48 34 -52 29 -4 52 -26 42 -42 -3 -5 -22 -10
-41 -10 -19 0 -34 -4 -34 -10 0 -14 64 -12 78 2 7 7 12 22 12 35 0 17 -7 24
-27 29 -49 10 -55 14 -51 31 2 12 16 20 43 24 l40 6 -41 2 c-27 1 -46 -5 -55
-15z"/>
<path d="M1464 946 c-3 -8 -4 -27 -2 -43 3 -26 6 -28 56 -31 41 -2 52 0 52 12
0 10 -12 16 -37 18 -47 4 -50 22 -5 26 20 2 32 9 32 18 0 20 -88 20 -96 0z"/>
<path d="M1410 931 c-15 -29 -12 -61 5 -61 11 0 15 11 15 40 0 45 -4 49 -20
21z"/>
</g>
</svg>
